<?xml version="1.0" standalone="no"?>
<!DOCTYPE svg PUBLIC "-//W3C//DTD SVG 20010904//EN"
 "http://www.w3.org/TR/2001/REC-SVG-20010904/DTD/svg10.dtd">
<svg version="1.0" xmlns="http://www.w3.org/2000/svg"
 width="499.000000pt" height="736.000000pt" viewBox="0 0 499.000000 736.000000"
 preserveAspectRatio="xMidYMid meet">

<g transform="translate(0.000000,736.000000) scale(0.100000,-0.100000)"
fill="#000000" stroke="none">
<path d="M1680 6574 c26 -73 94 -303 109 -366 18 -77 13 -142 -21 -256 l-31
-107 17 -83 c23 -115 91 -349 109 -375 8 -13 63 -43 128 -72 173 -76 172 -75
199 -275 8 -61 17 -91 32 -107 13 -14 67 -38 135 -60 l113 -37 116 38 c64 21
124 46 134 56 18 18 20 28 41 178 16 120 29 134 177 202 67 31 129 63 136 70
23 24 126 393 126 450 0 15 -13 74 -30 131 -16 57 -30 124 -30 149 0 57 26
162 88 363 l49 157 -66 -1 c-36 0 -84 -3 -106 -7 l-40 -7 -32 -167 c-32 -164
-33 -170 -159 -455 -69 -158 -137 -309 -150 -335 -38 -76 -60 -83 -249 -83
-179 0 -213 8 -244 59 -23 37 -274 606 -289 656 -6 19 -23 98 -37 175 -15 77
-30 144 -35 148 -4 5 -53 11 -109 14 l-101 6 20 -59z"/>
<path d="M1590 6353 c-19 -354 -18 -421 9 -523 41 -155 119 -402 214 -675 120
-343 148 -415 212 -550 52 -108 55 -111 133 -170 45 -33 96 -65 114 -72 46
-17 352 -16 398 0 20 7 71 40 114 72 75 57 79 62 131 169 67 141 102 230 213
551 133 385 217 659 237 778 6 35 -7 338 -24 582 -6 92 -8 97 -18 65 -140
-453 -138 -438 -93 -585 29 -96 32 -115 28 -203 -4 -89 -12 -119 -92 -362
-163 -496 -201 -604 -221 -634 -22 -33 -124 -119 -168 -142 -15 -8 -37 -12
-48 -9 -19 6 -20 12 -14 91 6 68 5 84 -6 84 -8 0 -65 -18 -127 -40 l-112 -40
-112 40 c-61 22 -118 40 -126 40 -11 0 -13 -15 -7 -84 7 -79 6 -84 -14 -91
-11 -3 -31 -1 -43 6 -39 20 -134 97 -161 129 -19 22 -66 153 -166 458 -77 235
-145 445 -150 467 -20 76 -13 182 19 285 17 51 30 115 30 141 0 40 -107 427
-129 467 -4 8 -14 -103 -21 -245z"/>
<path d="M1964 6585 c-3 -8 6 -76 21 -150 24 -127 35 -158 157 -438 71 -166
137 -310 147 -319 35 -37 271 -48 362 -16 34 12 20 -17 191 377 102 235 113
266 139 400 23 113 26 147 17 153 -7 4 -242 8 -521 8 -436 0 -508 -2 -513 -15z"/>
<path d="M1255 6452 c-359 -170 -699 -344 -780 -399 -93 -64 -121 -114 -135
-244 -29 -270 -65 -1106 -65 -1524 1 -295 1 -302 28 -400 39 -145 107 -274
263 -500 318 -463 927 -1411 1040 -1621 71 -131 122 -301 143 -474 6 -47 15
-183 20 -302 5 -119 14 -226 20 -237 6 -11 70 -49 142 -86 149 -76 152 -76
163 11 5 43 3 55 -16 79 -21 27 -23 41 -29 269 -9 305 -24 385 -111 606 -60
151 -548 1165 -679 1411 -242 455 -293 554 -338 664 -89 217 -96 255 -95 525
0 203 44 1064 60 1188 8 61 53 108 144 150 41 19 167 72 280 119 113 47 209
89 213 93 5 4 1 34 -7 68 -9 33 -16 87 -16 120 0 103 13 106 -368 -74 -185
-87 -352 -172 -370 -188 -78 -68 -81 -92 -107 -701 -9 -203 -20 -442 -25 -530
-23 -388 -3 -575 83 -780 25 -60 316 -598 557 -1030 308 -552 565 -1028 613
-1131 75 -165 86 -218 99 -476 13 -256 9 -278 -41 -278 -16 0 -39 8 -52 19
-22 17 -23 27 -31 217 -11 291 -39 454 -109 634 -55 144 -396 738 -754 1315
-405 653 -445 726 -484 880 -47 185 -47 333 -1 1360 23 508 31 549 120 611 25
18 223 123 440 234 217 111 403 210 413 219 15 14 21 46 30 149 12 129 12 152
-1 152 -4 0 -119 -53 -257 -118z"/>
<path d="M3445 6560 c-8 -14 14 -238 27 -272 8 -23 73 -59 406 -229 219 -111
414 -212 434 -225 45 -29 75 -59 95 -99 20 -37 37 -250 52 -620 6 -148 16
-399 22 -557 19 -448 5 -642 -56 -803 -49 -131 -84 -191 -590 -1010 -149 -240
-384 -646 -528 -910 -138 -253 -183 -432 -196 -782 l-9 -227 -27 -23 c-29 -25
-64 -30 -83 -11 -15 15 -16 245 -2 407 20 226 40 268 670 1401 374 672 585
1067 614 1148 31 88 62 239 71 347 4 44 0 211 -9 370 -9 160 -20 405 -26 545
-18 489 -27 574 -60 641 -33 64 -37 66 -604 331 -82 38 -155 67 -162 64 -9 -4
-14 -23 -14 -58 -1 -29 -5 -73 -11 -98 -5 -25 -12 -61 -15 -80 l-5 -35 183
-74 c358 -145 425 -183 452 -256 7 -19 28 -359 62 -999 13 -244 14 -327 5
-397 -24 -184 -90 -360 -252 -664 -256 -481 -413 -796 -696 -1395 -247 -520
-261 -569 -275 -940 -9 -235 -12 -268 -29 -292 -28 -40 -23 -141 8 -153 19 -7
240 107 268 139 19 20 22 44 33 272 22 474 59 593 304 989 268 432 733 1145
932 1430 239 342 279 504 258 1040 -7 165 -17 423 -23 574 -13 362 -45 816
-61 865 -31 98 -141 171 -573 382 -227 111 -573 274 -581 274 -1 0 -6 -5 -9
-10z"/>
<path d="M1622 5284 c-81 -95 -100 -139 -112 -260 -18 -187 -51 -779 -52 -939
-1 -196 -16 -128 267 -1250 215 -855 324 -1302 351 -1450 8 -44 18 -186 23
-315 5 -129 12 -242 15 -251 25 -60 342 -109 512 -80 115 20 203 50 218 74 10
16 16 79 21 237 3 118 13 256 21 305 24 150 114 525 359 1500 129 512 241 971
249 1020 9 50 16 134 16 188 0 208 -52 1004 -70 1065 -20 73 -129 217 -148
197 -11 -11 -62 -163 -62 -184 0 -7 20 -32 44 -55 53 -50 59 -74 81 -331 8
-99 22 -268 31 -375 33 -378 30 -414 -76 -890 -173 -779 -430 -2030 -450
-2190 -5 -46 -10 -148 -10 -227 0 -138 -1 -142 -24 -160 -42 -33 -217 -68
-341 -68 -117 1 -248 23 -322 55 l-43 19 0 88 c-1 209 -18 348 -85 684 -76
384 -264 1275 -361 1714 -125 562 -126 573 -95 965 34 428 51 603 63 640 5 19
34 60 64 90 l54 55 -33 97 c-19 54 -35 100 -38 102 -2 2 -32 -29 -67 -70z"/>
<path d="M1910 5278 c0 -21 132 -411 146 -433 19 -30 91 -69 99 -54 4 6 -8
101 -26 212 -38 228 -40 233 -132 266 -66 24 -87 26 -87 9z"/>
<path d="M2938 5267 c-32 -12 -65 -29 -74 -38 -17 -18 -89 -410 -80 -436 8
-21 81 22 105 62 18 28 141 400 141 424 0 16 -28 13 -92 -12z"/>
<path d="M1804 4911 c-41 -25 -50 -59 -19 -71 38 -15 95 -23 94 -14 0 5 -10
30 -22 57 l-22 47 -31 -19z"/>
<path d="M3107 4877 c-13 -28 -23 -54 -21 -55 7 -9 114 23 114 34 0 26 -13 45
-41 59 l-28 15 -24 -53z"/>
<path d="M1756 4732 c-3 -5 -9 -41 -12 -80 -7 -69 -6 -72 18 -81 31 -12 251
-61 255 -57 2 1 -16 44 -39 94 l-41 91 -76 17 c-42 9 -81 18 -87 21 -7 2 -15
0 -18 -5z"/>
<path d="M3111 4717 l-84 -22 -42 -92 -43 -91 37 5 c20 4 83 18 141 32 l105
26 -3 65 c-4 71 -10 100 -20 99 -4 0 -45 -11 -91 -22z"/>
<path d="M1727 4443 c-3 -5 -8 -38 -11 -75 -9 -78 -11 -76 110 -107 202 -52
530 -75 836 -61 240 12 368 30 516 72 l72 21 0 66 c0 97 0 96 -112 72 -51 -11
-144 -27 -205 -35 -105 -14 -115 -17 -173 -58 l-61 -43 -212 0 c-228 0 -226 0
-300 57 -33 26 -51 32 -155 44 -64 8 -154 23 -200 34 -94 22 -99 23 -105 13z"/>
<path d="M1707 4183 c-3 -4 -8 -40 -12 -79 l-7 -71 39 -16 c57 -23 255 -64
363 -76 366 -41 861 -14 1100 61 l75 24 3 62 c2 34 -2 70 -7 81 -10 19 -13 18
-103 -5 -328 -85 -1050 -84 -1358 2 -30 8 -62 17 -72 20 -9 3 -18 1 -21 -3z"/>
<path d="M1705 3900 c-2 -4 1 -40 8 -81 15 -89 13 -88 187 -123 195 -39 345
-49 661 -43 291 5 383 14 577 58 106 24 105 23 117 133 7 64 6 68 -11 62 -55
-17 -274 -56 -379 -67 -160 -17 -597 -17 -759 0 -72 7 -190 26 -263 41 -74 15
-135 24 -138 20z"/>
<path d="M1750 3608 c0 -12 5 -50 11 -85 l11 -63 67 -20 c306 -95 906 -99
1261 -9 41 11 80 25 86 32 14 16 36 149 25 160 -4 4 -63 -6 -132 -22 -179 -43
-311 -55 -594 -55 -287 0 -421 12 -594 54 -67 17 -126 30 -132 30 -5 0 -9 -10
-9 -22z"/>
<path d="M1803 3343 c-3 -7 1 -46 8 -85 l14 -71 54 -19 c215 -72 644 -96 957
-53 117 16 266 52 289 69 17 12 49 141 41 162 -3 9 -29 6 -98 -12 -183 -47
-294 -58 -573 -59 -286 0 -398 10 -574 53 -90 23 -114 26 -118 15z"/>
<path d="M1856 3062 c-5 -9 19 -136 29 -152 8 -12 118 -44 225 -66 113 -22
489 -31 631 -15 104 12 302 54 328 70 13 9 41 107 41 149 0 28 -11 28 -132 -3
-139 -35 -286 -49 -503 -49 -214 1 -345 14 -488 50 -106 26 -123 28 -131 16z"/>
<path d="M1916 2782 c-10 -17 25 -147 44 -164 24 -19 159 -52 284 -69 137 -18
487 -6 601 19 147 34 168 43 182 85 7 20 15 59 19 88 l7 52 -29 -6 c-16 -2
-72 -16 -125 -30 -239 -63 -663 -57 -889 13 -71 22 -86 24 -94 12z"/>
<path d="M1975 2500 c-4 -6 -1 -41 5 -76 14 -74 23 -82 116 -114 195 -68 557
-68 775 -1 35 11 72 26 82 34 20 14 51 146 38 159 -4 4 -58 -5 -121 -21 -282
-71 -561 -63 -872 25 -9 3 -19 0 -23 -6z"/>
<path d="M2035 2210 c-12 -19 16 -150 34 -159 44 -24 207 -62 307 -72 135 -13
276 -1 408 35 124 35 132 41 144 123 5 37 6 72 2 77 -5 4 -52 -3 -107 -17
-233 -61 -457 -62 -678 -2 -103 29 -102 28 -110 15z"/>
<path d="M2087 1933 c-3 -5 0 -39 7 -77 13 -82 24 -92 150 -128 70 -20 103
-23 246 -23 161 1 167 1 263 34 110 38 110 38 122 140 l7 64 -28 -6 c-16 -4
-63 -16 -104 -27 -179 -49 -376 -47 -556 5 -92 27 -101 29 -107 18z"/>
<path d="M2147 1633 c-5 -8 19 -162 27 -170 11 -11 120 -34 209 -43 104 -12
198 -7 310 16 102 21 103 22 117 114 7 44 10 83 7 86 -3 3 -48 -4 -99 -17
-123 -30 -324 -33 -443 -5 -44 10 -90 20 -101 23 -12 3 -24 1 -27 -4z"/>
<path d="M2200 1263 c0 -43 4 -84 9 -91 24 -38 272 -64 408 -42 43 6 92 18
109 25 30 12 32 16 39 90 4 42 3 81 -2 85 -4 5 -51 0 -103 -11 -52 -10 -129
-19 -171 -19 -67 0 -220 20 -271 36 -16 5 -18 -3 -18 -73z"/>
<path d="M2212 983 l3 -68 80 -17 c44 -9 123 -17 176 -17 98 -1 254 22 277 41
18 15 16 117 -3 124 -8 3 -38 1 -67 -6 -96 -21 -245 -23 -350 -6 -54 9 -103
16 -108 16 -7 0 -10 -25 -8 -67z"/>
</g>
</svg>
