<svg xmlns="http://www.w3.org/2000/svg" viewBox="0 0 19.85 6.3"><defs><style>.cls-1{fill:#fff;}</style></defs><g id="Layer_2" data-name="Layer 2"><g id="VL"><g id="Music-Source"><g id="Icones_copy_4" data-name="Icones copy 4"><g id="LINE"><path class="cls-1" d="M3.74,4.5H.28A.28.28,0,1,1,.28,4H3.74a.28.28,0,1,1,0,.55Z"/></g><g id="LINE-2" data-name="LINE"><path class="cls-1" d="M3.74,2.35H.28a.28.28,0,1,1,0-.55H3.74a.28.28,0,1,1,0,.55Z"/></g><g id="LWPOLYLINE"><path class="cls-1" d="M18.63,4.37H17.08a.29.29,0,0,1-.28-.28V2.21a.29.29,0,0,1,.28-.28h2l0,0h.09l0,0h0l0,0h0l0,0h0l0,0h0l0,0h0l0,0h0l0,0h0l0,0h0l0,0h0l0,0h0l0,0h0l0,0h0l0,0h0l0,0h0l0,0h0l0,0h0l0,0h0l0,0h0l0,0h0l0,0h0v0h0v0h0l0,0h0v0h0v0h0v0h0v0h0V3h0V3h0V3h0v0h0v0h0v0h0v0h0v0h0v0h0v0h0v0h0v0h0v0h0v0h0v0h0l0,0h0v0h0v0h0l0,0h0l0,0h0l0,0h0l0,0h0v0h0l0,0h0l0,0h0l0,0h0l0,0h0l0,0h0l0,0h0l0,0h0l0,0h0l0,0h0l0,0h0l0,0h0l0,0h0l0,0h0l0,0h-.54Zm-1.27-.56h1.45l.07,0,.06,0L19,3.69l.05,0,.05,0,.05-.06,0,0,0-.06,0-.07,0-.06V3l0-.07,0-.06,0-.06,0,0-.05-.05-.05,0-.06,0-.06,0-.06,0-.07,0-.07,0H17.36Z"/></g><g id="LWPOLYLINE-2" data-name="LWPOLYLINE"><path class="cls-1" d="M15.9,5.82H14a.28.28,0,0,1-.28-.28V.76A.27.27,0,0,1,14,.48h2.38l0,0h.11v0h0v0h0V1h0V1h0v0h0v0h0v0h0v0h0v0h0V5h0v0h0v0h0v0h0v0h0v0h0v0h0v0h0v0h0v0h0v0h0v0h0v0h0v0h0v0h0l0,0H15.9Zm-1.6-.56h1.64l.06,0,.06,0,.05-.06v-4l0-.06L16,1.06l-.07,0H14.3Z"/></g><g id="LWPOLYLINE-3" data-name="LWPOLYLINE"><path class="cls-1" d="M12.85,6.3H9L9,6.17H9l-.06,0h0l-.06,0h0l-.06,0h0l-.06,0h0L8.62,6h0l0,0h0l-.06,0h0l-.05,0h0l-.05,0h0l-.2-.15-.1-.06L8,5.58l-.11,0-.1,0-.11,0-.11,0-.12,0H3.7v0h0v0h0v0h0v0h0V5h0v0h0v0h0v0h0v0h0v0h0v0h0v0h0V1.68h0v0h0v0h0v0h0v0h0v0h0v0h0v0h0v0h0v0h0v0h0v0h0v0h.11v0h0l0,0h3.5l.11,0h.12l.11,0,.11,0,.1,0L8,.71l.1,0L8.15.6,8.24.53,8.35.44h0l.05,0h0l.05,0h0l.06,0h0l0,0h0l.05,0h0l.06,0h0l.06,0h0l.06,0h0L9,.13H9L9,.1H9l.07,0h0l.07,0h.08l.07,0h4.15v0h0v0h0v0h0v0h0v0h0v0h0v0h0v0h0v0h0v0h0v0h0V5.52h0v0h0v0h0v0h0v0h0v0h0v0h0v0h0v0h0v0h0v0h0v0h0V6h0l0,0h0v0h0v0h-.55ZM9.7,5.74h3.17l.07,0,.06,0,.05-.06,0-.07V.76l0-.06,0-.07,0-.05-.07,0H9.47l-.11,0-.11,0-.11,0L9,.69l-.1.05-.1.05-.1.07-.1.07L8.52,1h0l-.06,0h0l-.06,0h0l-.06,0h0l-.06,0h0l-.06,0h0l-.06,0h0l-.06,0h0L8,1.3H8l-.07,0h0l-.06,0h0l-.06,0H7.7l-.07,0H4.22l-.08,0-.06,0,0,.05,0,.08v3l0,.08,0,0,0,0,.07,0H7.85l.06,0h0L8,5H8l.06,0h0l.06,0h0l.06,0h0l.06,0h0l.06,0h0l.06,0h0l.06,0h0l.06,0h0l.21.15.1.06.1.06.1.05.11,0,.11,0,.11,0,.11,0H9.7Z"/></g></g></g></g></g></svg>