<svg xmlns="http://www.w3.org/2000/svg" viewBox="0 0 20 12.35"><defs><style>.cls-1,.cls-2{fill:#fff;}.cls-2{fill-rule:evenodd;}.cls-3,.cls-4{fill:none;stroke:#fff;stroke-miterlimit:10;}.cls-3{stroke-width:0.5px;}.cls-4{stroke-width:0.25px;}</style></defs><g id="Layer_2" data-name="Layer 2"><g id="Layer_169" data-name="Layer 169"><g id="ARC"><path class="cls-1" d="M18.44,12.35a.2.2,0,0,1-.13,0,.25.25,0,0,1-.1-.35,9.5,9.5,0,0,0,0-9.48.26.26,0,0,1,.1-.36.25.25,0,0,1,.35.1,10,10,0,0,1,0,10A.26.26,0,0,1,18.44,12.35Z"/></g><g id="ARC-2" data-name="ARC"><path class="cls-1" d="M16.82,11.41a.35.35,0,0,1-.14,0,.27.27,0,0,1-.09-.36,7.61,7.61,0,0,0,0-7.61.26.26,0,0,1,.09-.35.27.27,0,0,1,.36.09,8.14,8.14,0,0,1,0,8.13A.24.24,0,0,1,16.82,11.41Z"/></g><g id="ARC-3" data-name="ARC"><path class="cls-1" d="M3.19,11.41A.26.26,0,0,1,3,11.28,8.14,8.14,0,0,1,3,3.15a.27.27,0,0,1,.36-.09.26.26,0,0,1,.09.35,7.66,7.66,0,0,0,0,7.61.27.27,0,0,1-.09.36A.31.31,0,0,1,3.19,11.41Z"/></g><g id="ARC-4" data-name="ARC"><path class="cls-1" d="M1.57,12.35a.28.28,0,0,1-.23-.13,10,10,0,0,1,0-10,.26.26,0,0,1,.36-.1.27.27,0,0,1,.09.36,9.5,9.5,0,0,0,0,9.48.26.26,0,0,1-.09.35A.22.22,0,0,1,1.57,12.35Z"/></g><g id="ARC-5" data-name="ARC"><path class="cls-1" d="M4.81,10.48a.28.28,0,0,1-.23-.13,6.3,6.3,0,0,1,0-6.26A.26.26,0,0,1,4.94,4,.26.26,0,0,1,5,4.35a5.75,5.75,0,0,0,0,5.73.26.26,0,0,1-.09.36A.22.22,0,0,1,4.81,10.48Z"/></g><g id="ARC-6" data-name="ARC"><path class="cls-1" d="M15.19,10.48a.19.19,0,0,1-.12,0,.26.26,0,0,1-.1-.36,5.75,5.75,0,0,0,0-5.73.26.26,0,0,1,.1-.36.25.25,0,0,1,.35.1,6.25,6.25,0,0,1,0,6.26A.26.26,0,0,1,15.19,10.48Z"/></g><path class="cls-1" d="M10,11.41a4,4,0,0,1-4-4,4,4,0,0,1,4-4,4,4,0,0,1,4,4,4,4,0,0,1-4,4Zm0-7.56h0A3.56,3.56,0,0,0,10,11h0a3.56,3.56,0,0,0,0-7.12Z"/><path class="cls-2" d="M10,8.82a1.42,1.42,0,0,1-1.41-1.4A1.41,1.41,0,1,1,10,8.82Z"/><path class="cls-3" d="M8.3,3.92V.82A.58.58,0,0,1,8.87.25h2.26a.58.58,0,0,1,.57.57v3.1"/><rect class="cls-4" x="9.32" y="1.03" width="1.36" height="1.38" rx="0.23"/></g></g></svg>