<svg xmlns="http://www.w3.org/2000/svg" viewBox="0 0 20 13.93"><defs><style>.cls-1,.cls-2{fill:#fff;}.cls-2{fill-rule:evenodd;}</style></defs><g id="Layer_2" data-name="Layer 2"><g id="Layer_169" data-name="Layer 169"><path class="cls-1" d="M13.21,12.71H6.79A.76.76,0,0,1,6,12V.76A.76.76,0,0,1,6.79,0h6.42A.76.76,0,0,1,14,.76V12A.76.76,0,0,1,13.21,12.71ZM6.79.6a.16.16,0,0,0-.16.16V12a.16.16,0,0,0,.16.16h6.42a.16.16,0,0,0,.16-.16V.76A.16.16,0,0,0,13.21.6Z"/><path class="cls-2" d="M10.75,2.73a.75.75,0,1,1-1.5,0,.75.75,0,0,1,1.5,0Z"/><path class="cls-1" d="M10,4.35A1.62,1.62,0,0,1,8.39,2.73,1.6,1.6,0,0,1,10,1.12h0a1.62,1.62,0,0,1,1.61,1.6,1.57,1.57,0,0,1-.47,1.14A1.6,1.6,0,0,1,10,4.35Zm0-2.82h0A1.19,1.19,0,0,0,8.8,2.73,1.21,1.21,0,0,0,10,3.94h0a1.21,1.21,0,0,0,1.21-1.21A1.22,1.22,0,0,0,10,1.53Z"/><path class="cls-1" d="M10,11.85a3.05,3.05,0,0,1-2.16-5.2A3.1,3.1,0,0,1,10,5.75a3,3,0,0,1,3.07,3,3,3,0,0,1-.87,2.15,3.07,3.07,0,0,1-2.17.92Zm0-5.58h0a2.53,2.53,0,0,0,0,5.06h0a2.57,2.57,0,0,0,1.8-.76,2.46,2.46,0,0,0,.73-1.78A2.54,2.54,0,0,0,10,6.27Z"/><path class="cls-2" d="M10,9.87a1.08,1.08,0,0,1,0-2.15,1.11,1.11,0,0,1,1.08,1.07A1.09,1.09,0,0,1,10,9.87Z"/><g id="ARC"><path class="cls-1" d="M18.44,13.93a.2.2,0,0,1-.13,0,.25.25,0,0,1-.1-.35,9.5,9.5,0,0,0,0-9.48.26.26,0,0,1,.1-.36.25.25,0,0,1,.35.1,10,10,0,0,1,0,10A.26.26,0,0,1,18.44,13.93Z"/></g><g id="ARC-2" data-name="ARC"><path class="cls-1" d="M16.82,13a.35.35,0,0,1-.14,0,.27.27,0,0,1-.09-.36,7.61,7.61,0,0,0,0-7.61.26.26,0,0,1,.09-.35.27.27,0,0,1,.36.09,8.14,8.14,0,0,1,0,8.13A.24.24,0,0,1,16.82,13Z"/></g><g id="ARC-3" data-name="ARC"><path class="cls-1" d="M3.19,13A.26.26,0,0,1,3,12.86,8.14,8.14,0,0,1,3,4.73a.27.27,0,0,1,.36-.09A.26.26,0,0,1,3.41,5a7.66,7.66,0,0,0,0,7.61.27.27,0,0,1-.09.36A.31.31,0,0,1,3.19,13Z"/></g><g id="ARC-4" data-name="ARC"><path class="cls-1" d="M1.57,13.93a.28.28,0,0,1-.23-.13,10,10,0,0,1,0-10,.26.26,0,0,1,.36-.1.27.27,0,0,1,.09.36,9.5,9.5,0,0,0,0,9.48.26.26,0,0,1-.09.35A.22.22,0,0,1,1.57,13.93Z"/></g><g id="ARC-5" data-name="ARC"><path class="cls-1" d="M4.81,12.06a.28.28,0,0,1-.23-.13,6.3,6.3,0,0,1,0-6.26.26.26,0,0,1,.36-.1A.27.27,0,0,1,5,5.93a5.77,5.77,0,0,0,0,5.74.26.26,0,0,1-.09.35A.22.22,0,0,1,4.81,12.06Z"/></g><g id="ARC-6" data-name="ARC"><path class="cls-1" d="M15.19,12.06a.19.19,0,0,1-.12,0,.25.25,0,0,1-.1-.35,5.77,5.77,0,0,0,0-5.74.26.26,0,0,1,.1-.36.25.25,0,0,1,.35.1,6.25,6.25,0,0,1,0,6.26A.26.26,0,0,1,15.19,12.06Z"/></g></g></g></svg>