<svg xmlns="http://www.w3.org/2000/svg" viewBox="0 0 14.17 19.31"><defs><style>.cls-1{fill:#fff;}</style></defs><g id="Layer_2" data-name="Layer 2"><g id="VL"><g id="Music-Source"><g id="Icones_copy_4" data-name="Icones copy 4"><path class="cls-1" d="M13,6.36a1.21,1.21,0,0,0-1.21,1.21,1.15,1.15,0,0,0,.15.59l-.73.74a1.75,1.75,0,0,0-.52,1.25v3.14H9.37V6.71a1.1,1.1,0,0,1,.32-.79l1.44-1.43a1.18,1.18,0,0,0,.59.15,1.21,1.21,0,1,0-1.21-1.21,1.16,1.16,0,0,0,.16.59L9.23,5.46a1.77,1.77,0,0,0-.52,1.25v6.58H7.41V2.39a1.22,1.22,0,1,0-.65,0v10.9H5.46V6.71a1.73,1.73,0,0,0-.52-1.25L3.51,4a1.15,1.15,0,0,0,.15-.59,1.19,1.19,0,1,0-.61,1.06L4.48,5.92a1.11,1.11,0,0,1,.33.79v6.58H3.52V10.15A1.71,1.71,0,0,0,3,8.9l-.73-.74a1.16,1.16,0,0,0,.16-.59,1.2,1.2,0,1,0-.62,1.06l.73.73a1.11,1.11,0,0,1,.33.79v3.14H2.38a.81.81,0,0,0-.81.81V19a.33.33,0,0,0,.66,0V14.1a.15.15,0,0,1,.15-.16H11.8a.16.16,0,0,1,.15.16V19a.33.33,0,1,0,.65,0V14.1a.8.8,0,0,0-.8-.81h-.49V10.15a1.1,1.1,0,0,1,.32-.79l.73-.73a1.24,1.24,0,0,0,.6.15,1.21,1.21,0,0,0,0-2.42Z"/></g></g></g></g></svg>