<svg xmlns="http://www.w3.org/2000/svg" viewBox="0 0 16.37 16.27"><defs><style>.cls-1{fill:#fff;}</style></defs><g id="Layer_2" data-name="Layer 2"><g id="VL"><g id="Equalization"><g id="Icones_copy_4" data-name="Icones copy 4"><path class="cls-1" d="M2.73,14.11h0v0h0v0h0v0h0v0h0v0h0v0h0v0h0v0h0v0h0v0h0v0h0v0h0v0h0v0h0v0h0v0h0v0H3v0H3l0,0h.11v0h.54v.17a.34.34,0,0,0,.68,0V15H12v.17a.34.34,0,0,0,.67,0V15h.67v0h0l0,0h0l0,0h0l0,0h0v0h0v0h0v0h0v0h0v0h0v0h0v0h0v0h0v0h0v0h0v0h0v0h0v0h0v0h0v0h0v0h0V10.91h0v0h0v-.06h0v0h0v0h0v-.06h0v0h0v0h0v0h0v0h0v0h0v0h0v0h0v0h0v0h0v0h0l0,0h0l0,0h0l0,0h0v0h0l0,0h0l0,0h-.48v0h0v0h0v0h0v0h0v0h0v0h0v0h0v0h0v0h0v0h0v0h0v0h0v0h0v0h0v0h0v0h0v0h0v0h0v0h0l0,0h0l0,0h0l0,0h0l0,0h0l0,0h0l0,0h0l0,0h0l0,0h0l0,0h0l0,0h0l0,0h0l0,0h0l0,0h0l0,0h0l0,0h0l0,0h0l0,0h0l0,0h0l0,0h0l0,0h0l0,0h0l0,0h0l0,0h0l0,0h-.08l0,0H4.51l0,0H4.4l0,0h0l0,0h0l0,0h0l0,0h0l0,0h0l0,0h0l0,0h0l0,0h0l0,0h0l0,0H4l0,0H4l0,0H4l0,0H4l0,0h0l0,0h0l0,0h0l0,0h0l0,0h0l0,0h0l0,0h0v0h0v0h0v0h0v0h0l0,0h0v0h0v0h0v0h0v0h0v0h0v0h0v0h0v0h0v0h0v0h0v0h0v0h0v0h0v0h0v0h0v0h0v0h0v0H3.06l0,0H3v0H3v0h0v0h0v0h0v0h0l0,0h0v0h0v0h0v.06h0v0h0v0h0v0h0v0h0v.06h0v0h0v0h0v.06h0v0h0v3.17h0ZM4.22,9.85l0-.11,0-.11,0-.1.07-.1,0-.08.09-.08.09-.08.08,0,.1-.05.11,0L5,9h6.3l.11,0,.11,0,.1,0,.11.06.07.05.07.07.07.07.05.08.05.08,0,.1,0,.11,0,.11V10h-.43l0,0h0v0h0l0,0h0v0h0v0h0v0h0v0h0v0h0v0h0v0h0v0h0v0h0v0h0v0h0v0h0v0h0v0h0v0h0v0h0v.06h0v1h0v.06l0,.08,0,.05-.06,0-.07,0-.08,0H5.26l-.08,0-.07,0L5.05,12l0,0,0-.07v-1H5v0H5v-.06H5v0H5v0H5v0H5v0H5v0h0v0h0v0h0v0h0v0h0v0h0v0h0l0,0h0v0h0v0h0v0h0l0,0h0v0h0v0h0l0,0h0v0H4.21ZM3.4,10.9l0-.08,0-.08,0-.06.06,0,.06,0h.46l.07,0,.06,0,0,.06,0,.08v1.05h0v0h0V12h0v0h0v.06h0v0h0v0h0v0h0v0h0v0h0v0h0v0h0v0h0v0h0v0h0l0,0h0l0,0h0l0,0h0l0,0h0l0,0h0l0,0h0v0h.09l0,0H11.6l0,0h.12v0h0l0,0h0v0h0v0h0v0h0v0h0v0h0l0,0h0v0h0v0h0v0h0v0h0v0h0v0h0v0h0v0h0v0h0v0h0v-.06h0v0h0v0h0v-1l0-.08,0-.06,0-.06.06,0,.07,0h.43l.07,0,.07,0,.05.06,0,.07v3.33l0,.07,0,.07-.05,0-.07,0H3.65l-.08,0-.06,0,0-.05,0-.07,0-.08V10.91Z"/><path class="cls-1" d="M16.37,6.82h0s0,0,0,0h0v0h0v0h0v0h0v0h0v0h0v0h0l0,0h0L8.4.08A.32.32,0,0,0,8,.08L.12,6.56h0l0,0h0l0,0h0l0,0h0v0H0v0H0v0H0a0,0,0,0,0,0,0H0v0H0v9.11H0v0H0v0H0v0H0v0h0v0h0v0h16.2v0h0v0h0v0h0v0h0v0h0v0h0V6.82Zm-3.2-.34L8.52,2.54V1.05l6.57,5.43ZM7.85,2.54,3.2,6.48H1.27L7.85,1.05ZM2.06,14.06a.32.32,0,0,0-.47,0l-.91,1V7.16H3V8.32a.34.34,0,1,0,.67,0V7L8.18,3.14,12.71,7V8.32a.34.34,0,1,0,.67,0V7.16h2.31v7.91l-.9-1a.34.34,0,0,0-.48,0,.35.35,0,0,0,0,.48l1,1.05H1.11l1-1.05A.34.34,0,0,0,2.06,14.06Z"/></g></g></g></g></svg>