<svg xmlns="http://www.w3.org/2000/svg" viewBox="0 0 14.76 17.13"><defs><style>.cls-1,.cls-2{fill:#fff;}.cls-2{fill-rule:evenodd;}</style></defs><g id="Layer_2" data-name="Layer 2"><g id="VL"><g id="Micrphone"><g id="Icones_copy_4" data-name="Icones copy 4"><path class="cls-1" d="M11.53,0a3.56,3.56,0,0,0-2.8,1l0,0,0,0a3.49,3.49,0,0,0-1,2.17,2.9,2.9,0,0,0,0,.51L2.34,10a.28.28,0,0,0,0,.39l.19.19L1.33,11.78a.32.32,0,0,0-.08.21.3.3,0,0,0,.08.2l.42.41-.11.11,0,0h0l0,0h0l0,0h0l0,0h0l-.05,0h0l0,0h0l0,.05h0l0,.06h0l0,.06h0l0,0h0l0,.06h0l0,.05h0l0,.06h0l0,.06h0l0,.06h0l0,.06h0l0,.06h0l0,.06h0l0,.06H1l0,.07H1v.07H1V14H1l0,.06H1v.06H1v.06H1v.06H1v.06H1v.06H1v.06H1v.06H1v0H1v.06H1v.06H1v.06H1v.05H1V15H1V15H1v.06H1l0,.05h0l0,.06h0v0h0l0,.05h0l0,.05h0l0,0h0l0,0h0l0,.05h0l0,.05h0l0,0h0l0,.05h0l0,.05h0l0,0h0l0,.05h0l0,.05h0l0,0h0l0,0h0l0,0h0l0,0h0l0,0h0l0,.05h0l0,0h0l0,0h0l0,0h0l0,0h0l0,0h0l0,0h0l0,0H2l0,0H2l0,0h0l0,0h0l0,0h0l0,0h0l0,0h0l0,0h0l0,0h0l.05,0h0l0,0h0l.05,0h0l.05,0h0l.06,0h0l0,0h0l0,0h0l.05,0H4.2l.12,0h.13l.12,0h0l.11,0h0l.12,0h0l.12,0H5l.11,0h0l.11,0h0l.12,0h0l.23-.07h0l.23-.08h0L6,16.66H6l.22-.09h0l.22-.09h0l.22-.11h0l1.69-.83.21-.1.21-.09L9,15.25l.21-.08.21-.07L9.66,15,9.88,15l.11,0,.1,0,.12,0,.11,0,.11,0,.11,0h.11l.12,0h1l.11,0,.11,0,.11,0,.1,0h.06l.15.05.1,0,.1,0,.1,0a.28.28,0,0,0,.38-.13.29.29,0,0,0-.13-.39l-.06,0h0l-.06,0h0l-.06,0h0l-.06,0h0l-.06,0h0l-.06,0h0l-.06,0h0l-.05,0h0l-.05,0h0l-.06,0h0l-.12,0h0l-.12,0h0l-.11,0h0l-.12,0h0l-.12,0H10.46l-.12,0h0l-.12,0h0l-.12,0h0l-.12,0h0l-.12,0h0l-.12,0h0l-.22.07h0l-.23.07h0L9,14.63H9l-.22.09h0l-.22.09h0l-.22.09h0L8.15,15h0l-1.69.83-.21.1L6,16l-.21.09-.22.09-.22.07-.23.07-.1,0-.12,0-.11,0-.11,0-.11,0-.11,0-.11,0H3.51l-.09,0-.16,0-.14,0-.15,0-.09,0-.14-.06-.08,0-.09,0-.08-.05-.08-.05-.08-.06L2.26,16,2.18,16l-.06-.07-.07-.07L2,15.75l-.06-.07-.06-.08-.05-.09-.05-.09,0-.08,0-.1,0-.09,0-.1,0-.1,0-.1,0-.11V14.1l0-.11,0-.11,0-.11,0-.1.05-.1.05-.1.06-.1.06-.09L2,13.2,2.15,13l.42.42a.29.29,0,0,0,.4,0l1.22-1.22.19.2a.3.3,0,0,0,.2.08.26.26,0,0,0,.19-.07L11,7.09h.19a3.53,3.53,0,0,0,2.48-1l0,0,0,0a3.49,3.49,0,0,0,1-2.16A3.56,3.56,0,0,0,11.53,0ZM2.77,12.82l-.41-.42h0L1.94,12l1-1,.83.83Zm1.83-1-.21-.21h0L3.15,10.37h0L3,10.16l5-5.9,2.51,2.52ZM11,6.51l-2.8-2.8a3.09,3.09,0,0,1,0-.43,2.91,2.91,0,0,1,.67-1.62L13.1,5.84A3,3,0,0,1,11,6.51Zm3.13-2.7a3,3,0,0,1-.67,1.62L9.32,1.25a3,3,0,0,1,4.85,2.56Z"/><g id="CIRCLE"><path class="cls-1" d="M8.78,6.64a.67.67,0,1,0-.67.68.67.67,0,0,0,.67-.68Z"/></g><path class="cls-2" d="M0,5.8a2,2,0,0,1,.18-.42A1,1,0,0,1,1.4,5.05l.06,0V1.61c0-.19,0-.25.22-.32L4.82,0A.26.26,0,0,1,5.2.17V4.62a1,1,0,0,1-1,1,1,1,0,0,1-1-1,1,1,0,0,1,1.39-.84l.07,0V1.58L2,2.68V5.92a1,1,0,0,1-1,1A1,1,0,0,1,0,6.11l0-.05Z"/></g></g></g></g></svg>