<svg xmlns="http://www.w3.org/2000/svg" viewBox="0 0 13.77 17.1"><defs><style>.cls-1{fill:#fff;}</style></defs><g id="Layer_2" data-name="Layer 2"><g id="VL"><g id="Micrphone"><g id="Icones_copy_4" data-name="Icones copy 4"><path class="cls-1" d="M10.55,0a3.54,3.54,0,0,0-2.8,1l0,0a0,0,0,0,0,0,0,3.46,3.46,0,0,0-1,2.16,2.9,2.9,0,0,0,0,.51L1.38,10a.28.28,0,0,0,0,.39l.19.19L.37,11.76a.3.3,0,0,0-.08.2.32.32,0,0,0,.08.21l.42.41-.11.1,0,0h0l0,0h0l0,0h0l0,0h0l0,0h0l0,.05h0l0,.05h0l0,0h0l0,.06h0l0,.06h0l0,.05h0l0,.06h0l0,0h0l0,.06h0l0,.06h0l0,.06h0l0,.07h0l0,.06h0l0,.06h0l0,.06h0v.06h0V14H0V14H0v.06H0v.06H0v.06H0v.06H0v.06H0v.06H0v.06H0v.06H0v.06H0v.06H0v.06H0v.06H0l0,.06h0V15h0v.06h0v.06h0l0,.06h0l0,.05h0l0,.05h0l0,.06h0l0,.06h0l0,.05h0l0,0h0l0,0h0l0,.05h0l0,.05h0l0,0h0l0,.05h0l0,.05h0l0,0h0l0,0h0l0,0h0l0,0h0l0,0h0l0,0h0l0,.05h0l0,0h0l0,0h0l0,0h0l.05,0h0l0,0h0l0,0H1l0,0H1l.05,0h0l0,0h0l0,0h0l0,0h0l0,0h0l.05,0h0l0,0h0l0,0h0l.05,0h0l0,0h0l.05,0h0l0,0h.06l.05,0h0l.05,0h.24l.06,0H3.49l.12,0h0l.12,0h0l.11,0h0L4,17H4l.12,0h0l.12,0h0l.12,0h0l.23-.07h0l.22-.08h0L5,16.63h0l.23-.1h0l.22-.09h0l.21-.11h0l1.69-.83.21-.1.21-.09.2-.08.22-.09.21-.07L8.68,15l.22-.06.11,0,.11,0,.11,0,.11,0,.11,0,.12,0h1.24l.11,0,.11,0,.11,0,.1,0h.06l.15,0,.1,0,.1,0,.1,0a.28.28,0,0,0,.25-.51l-.06,0h0l-.06,0h0l-.06,0h0l-.06,0h0l-.06,0h0l-.06,0h0l-.06,0h0l-.05,0h0l0,0h-.07l-.12,0h0l-.11,0h0l-.12,0h0l-.12,0H9.36l-.12,0h0l-.12,0h0l-.11,0H9l-.11,0h0l-.11,0h0l-.23.06h0l-.22.07h0l-.22.08h0l-.21.08h0l-.22.09h0l-.22.1h0l-.21.1h0l-1.69.83-.21.1L5.05,16l-.21.09-.22.09-.22.07-.22.07-.11,0-.11,0-.11,0-.11,0-.11,0-.11,0-.11,0H2.55l-.1,0-.15,0-.14,0-.15,0-.09,0-.14-.06-.08,0-.09,0-.08,0-.08-.05-.08-.06L1.3,16l-.08-.06-.06-.07-.07-.07L1,15.73,1,15.65l-.06-.08-.05-.09,0-.08,0-.09,0-.1,0-.09,0-.1,0-.1,0-.1,0-.1v-.65l0-.11,0-.11,0-.1,0-.11.05-.1,0-.09.06-.1.06-.09L1,13.17,1.19,13l.41.41a.29.29,0,0,0,.21.08A.26.26,0,0,0,2,13.4l1.21-1.21.19.19a.29.29,0,0,0,.21.09.31.31,0,0,0,.18-.07L10,7.08h.19a3.53,3.53,0,0,0,2.48-1l0,0s0,0,0,0a3.6,3.6,0,0,0,1-2.16A3.56,3.56,0,0,0,10.55,0ZM1.81,12.79l-.41-.41h0L1,12l1-1,.83.82Zm1.82-1-.21-.21h0L2.19,10.35h0L2,10.14,7,4.25,9.52,6.77ZM10.07,6.5,7.27,3.7a2,2,0,0,1,0-.42,2.87,2.87,0,0,1,.66-1.62l4.18,4.17A3,3,0,0,1,10.07,6.5Zm3.12-2.69a3,3,0,0,1-.67,1.61L8.35,1.25A2.91,2.91,0,0,1,10.5.59,3,3,0,0,1,13.19,3.81Z"/><g id="CIRCLE"><path class="cls-1" d="M7.81,6.63a.67.67,0,1,0-.67.67.67.67,0,0,0,.67-.67Z"/></g></g></g></g></g></svg>