<svg xmlns="http://www.w3.org/2000/svg" viewBox="0 0 23.04 23.04"><defs><style>.cls-1{fill:#fff;}</style></defs><g id="Layer_2" data-name="Layer 2"><g id="VL"><g id="Volume"><g id="Icones"><path class="cls-1" d="M12.2,23H10.84l-.17,0a10.86,10.86,0,0,1-5-1.58A11.35,11.35,0,0,1,.18,13.5C.1,13.07.06,12.63,0,12.2V10.85c0-.17,0-.33.05-.49A11.41,11.41,0,0,1,3,3.84,11.26,11.26,0,0,1,9.54.18c.43-.07.87-.12,1.3-.18H12.2a.85.85,0,0,0,.17,0,10.83,10.83,0,0,1,5,1.59,11.33,11.33,0,0,1,5.46,7.91c.08.43.12.87.18,1.31V12.2l-.06.48a11.33,11.33,0,0,1-2.89,6.52,11.26,11.26,0,0,1-6.59,3.66C13.07,22.94,12.63,23,12.2,23ZM11.53,1.79a9.73,9.73,0,1,0,9.72,9.73A9.73,9.73,0,0,0,11.53,1.79Z"/><path class="cls-1" d="M11.52,12.33H7.11a.89.89,0,0,1-.22-1.76,1.83,1.83,0,0,1,.33,0h8.6a1,1,0,0,1,1,.6A.89.89,0,0,1,16,12.33H11.52Z"/></g></g></g></g></svg>