<svg xmlns="http://www.w3.org/2000/svg" viewBox="0 0 32.26 23.47"><defs><style>.cls-1,.cls-2{fill:#fff;}.cls-1{fill-rule:evenodd;}</style></defs><g id="Layer_2" data-name="Layer 2"><g id="Layer_162" data-name="Layer 162"><path class="cls-1" d="M0,7a.81.81,0,0,1,.86-.52c1.38,0,2.75,0,4.12,0a.62.62,0,0,0,.41-.16l6.38-6a1.83,1.83,0,0,1,.31-.24A.63.63,0,0,1,13,.48a1.67,1.67,0,0,1,0,.39V22.61A1.44,1.44,0,0,1,13,23a.62.62,0,0,1-.9.37,1.17,1.17,0,0,1-.29-.22l-6.35-6A.74.74,0,0,0,4.9,17c-1.36,0-2.71,0-4.07,0A.79.79,0,0,1,0,16.44Z"/><path class="cls-2" d="M22.53,11.73,20.69,9.89c-.9-.9-1.81-1.8-2.7-2.71a1.63,1.63,0,0,1,.29-2.63,1.65,1.65,0,0,1,2.06.35c1.39,1.38,2.78,2.78,4.16,4.17l.35.34.37-.36C26.58,7.69,27.94,6.34,29.3,5A1.74,1.74,0,0,1,31,4.37a1.53,1.53,0,0,1,1.23,1.1,1.55,1.55,0,0,1-.42,1.66l-4.24,4.26-.35.34.33.34c1.4,1.39,2.81,2.79,4.19,4.19a1.64,1.64,0,0,1-.4,2.74,1.66,1.66,0,0,1-1.92-.43l-4.16-4.16-.36-.36-.32.32-4.29,4.28a1.62,1.62,0,0,1-2.74-.79,1.7,1.7,0,0,1,.57-1.66l4.08-4.08Z"/></g></g></svg>