<svg xmlns="http://www.w3.org/2000/svg" viewBox="0 0 17.04 15.59"><defs><style>.cls-1{fill:#fff;}</style></defs><g id="Layer_2" data-name="Layer 2"><g id="VL"><g id="Equalization"><g id="Icones_copy_4" data-name="Icones copy 4"><path class="cls-1" d="M16.74,15h-3l-1.21-2.42a.29.29,0,0,0-.27-.17H7.75L5.54,7.32,9.25,5.68h.06l0,0h0l0,0h0v0h0a.41.41,0,0,0,0-.09h0v0h0a.41.41,0,0,0,0-.11h0v0h0a0,0,0,0,0,0,0h0v0h0v0h0A4.89,4.89,0,0,0,6,3.5a5.05,5.05,0,0,0-2,.28l-.24-.57a.3.3,0,0,0-.4-.16.31.31,0,0,0-.17.4L3.43,4A4.87,4.87,0,0,0,.82,9h0V9s0,0,0,.06h0l0,0h0l0,0h0l0,0h0l0,0H1l0,0h.26L5,7.57l2.11,4.82H4.29L.49,9.64a.31.31,0,0,0-.36.5l3.7,2.67L3.15,15H.59a.31.31,0,0,0-.31.31.3.3,0,0,0,.31.3H16.74a.29.29,0,0,0,.3-.3A.3.3,0,0,0,16.74,15ZM5,6.88H5l-1.3.58a4.3,4.3,0,0,1-.15-2.81l.36-.18H4l.41-.16a4.27,4.27,0,0,1,2,2L5,6.88ZM6,4.12A4.19,4.19,0,0,1,8.61,5.29L6.91,6A4.85,4.85,0,0,0,5.3,4.12,4,4,0,0,1,6,4.12ZM2.82,5.18A4.93,4.93,0,0,0,3.15,7.7l-1.76.78A4.29,4.29,0,0,1,2.82,5.18ZM12.08,13l1,2H8.88L8,13ZM4.42,13H7.34l.87,2H3.79Z"/><path class="cls-1" d="M14.43,2.53a.31.31,0,0,0,.22-.09l1-1a.3.3,0,0,0,0-.43.31.31,0,0,0-.44,0l-1,1a.31.31,0,0,0,0,.44A.31.31,0,0,0,14.43,2.53Z"/><path class="cls-1" d="M11.69,2.44a.29.29,0,0,0,.21.09.31.31,0,0,0,.22-.09.31.31,0,0,0,0-.44l-1-1a.31.31,0,0,0-.44,0,.3.3,0,0,0,0,.43Z"/><path class="cls-1" d="M11.69,4.53l-1,1a.3.3,0,0,0,0,.43.29.29,0,0,0,.44,0l1-1a.3.3,0,0,0-.43-.43Z"/><path class="cls-1" d="M14.21,4.53a.3.3,0,0,0,0,.43l1,1a.29.29,0,0,0,.44,0,.3.3,0,0,0,0-.43l-1-1A.31.31,0,0,0,14.21,4.53Z"/><path class="cls-1" d="M14.65,3.48a.3.3,0,0,0,.3.31h1.39a.31.31,0,0,0,.31-.31.3.3,0,0,0-.31-.3H15A.29.29,0,0,0,14.65,3.48Z"/><path class="cls-1" d="M13.17,2a.29.29,0,0,0,.3-.3V.31a.3.3,0,0,0-.3-.31.31.31,0,0,0-.31.31V1.7A.3.3,0,0,0,13.17,2Z"/><path class="cls-1" d="M10,3.79h1.39a.31.31,0,0,0,.31-.31.3.3,0,0,0-.31-.3H10a.3.3,0,0,0-.31.3A.31.31,0,0,0,10,3.79Z"/><path class="cls-1" d="M12.86,5.27V6.66a.3.3,0,0,0,.31.3.29.29,0,0,0,.3-.3V5.27a.3.3,0,0,0-.3-.31A.31.31,0,0,0,12.86,5.27Z"/><path class="cls-1" d="M13.17,4.8a1.32,1.32,0,1,0-1.32-1.32A1.32,1.32,0,0,0,13.17,4.8Zm0-2a.7.7,0,0,1,.7.7.71.71,0,1,1-.7-.7Z"/></g></g></g></g></svg>