<svg xmlns="http://www.w3.org/2000/svg" viewBox="0 0 23.4 23.4"><defs><style>.cls-1{fill:#fff;}</style></defs><g id="Layer_2" data-name="Layer 2"><g id="VL"><g id="Volume"><g id="Icones"><path class="cls-1" d="M12.38,23.4H11l-.17,0a11.13,11.13,0,0,1-5.11-1.61,11.56,11.56,0,0,1-5.55-8C.1,13.28.06,12.83,0,12.39V11l.06-.5A11.72,11.72,0,0,1,9.68.18C10.12.11,10.57.06,11,0h1.37a1.16,1.16,0,0,0,.18,0,11.09,11.09,0,0,1,5.1,1.61,11.5,11.5,0,0,1,5.55,8c.09.44.13.88.19,1.33v1.37l-.06.49A11.55,11.55,0,0,1,20.4,19.5a11.46,11.46,0,0,1-6.69,3.72C13.27,23.3,12.83,23.34,12.38,23.4ZM11.69,1.82a9.88,9.88,0,1,0,9.89,9.86A9.88,9.88,0,0,0,11.69,1.82Z"/><path class="cls-1" d="M10.79,10.71V9.26c0-.71,0-1.42,0-2.12a.91.91,0,0,1,1.15-.92.92.92,0,0,1,.67,1v3.54h3.48a1,1,0,0,1,.89.41.9.9,0,0,1-.77,1.4h-3.6v3.55a.92.92,0,0,1-1.24.92.93.93,0,0,1-.58-.92V12.52H7.18a.86.86,0,0,1-.8-.47.83.83,0,0,1,0-.91.93.93,0,0,1,.88-.43h3.5Z"/></g></g></g></g></svg>