<svg xmlns="http://www.w3.org/2000/svg" viewBox="0 0 24.49 24.52"><defs><style>.cls-1{fill:#fff;fill-rule:evenodd;}</style></defs><g id="Layer_2" data-name="Layer 2"><g id="VL"><g id="Head"><g id="Icones_copy_4" data-name="Icones copy 4"><path class="cls-1" d="M0,11c.09-.51.17-1,.29-1.52A12,12,0,0,1,3.52,3.63,1,1,0,1,1,4.89,5,10.62,10.62,0,0,0,2.18,9.74,10.4,10.4,0,0,0,5.83,20.41a10.34,10.34,0,0,0,16.41-5.52A10.09,10.09,0,0,0,19.78,5.2a1.5,1.5,0,0,1-.5-.8,1,1,0,0,1,.51-1,.9.9,0,0,1,1.1.17A18.84,18.84,0,0,1,22.3,5.28a11.78,11.78,0,0,1,2.16,6.11,12.24,12.24,0,0,1-8.92,12.7,12.87,12.87,0,0,1-3.5.43,11.23,11.23,0,0,1-4.92-1.09,12.11,12.11,0,0,1-7-9.08c0-.26-.09-.52-.13-.78Z"/><path class="cls-1" d="M11.27,6.62V1a1,1,0,0,1,1.91-.1.49.49,0,0,1,0,.12V12.22a1,1,0,1,1-1.92,0V6.62Z"/></g></g></g></g></svg>