<svg xmlns="http://www.w3.org/2000/svg" viewBox="0 0 15.46 17.51"><defs><style>.cls-1{fill:#fff;}</style></defs><g id="Layer_2" data-name="Layer 2"><g id="VL"><g id="Micrphone"><g id="Icones_copy_4" data-name="Icones copy 4"><path class="cls-1" d="M7.73,6.33a3.17,3.17,0,1,1,3.16-3.17A3.16,3.16,0,0,1,7.73,6.33Zm0-5.66a2.49,2.49,0,1,0,2.49,2.49A2.49,2.49,0,0,0,7.73.67Z"/><path class="cls-1" d="M15.4,9.9a.35.35,0,0,0-.28-.15H15V8.46a4.21,4.21,0,0,0-1.38-3.12.76.76,0,0,0,0-.21.75.75,0,1,0-1.5,0,.74.74,0,0,0,1,.7,3.53,3.53,0,0,1,1.16,2.63V9.75H12.75V9.18a3.12,3.12,0,0,0-2.86-3.1.43.43,0,0,0-.22.06,3.35,3.35,0,0,1-3.88,0,.46.46,0,0,0-.22-.06,3.15,3.15,0,0,0-2,1,3.08,3.08,0,0,0-.83,2.11v.57H.34a.33.33,0,0,0-.28.15.34.34,0,0,0,0,.31l1.73,4.31a.36.36,0,0,0,.32.22H4.16L3.8,17.12a.32.32,0,0,0,.07.27.37.37,0,0,0,.26.12h7.2a.33.33,0,0,0,.25-.12.3.3,0,0,0,.08-.27l-.36-2.38h2.09a.33.33,0,0,0,.31-.22l1.73-4.31A.31.31,0,0,0,15.4,9.9Zm-12-.72A2.45,2.45,0,0,1,5.51,6.77a4.06,4.06,0,0,0,4.44,0,2.45,2.45,0,0,1,2.13,2.41v.57H3.38Zm7.56,7.65H4.52L5.26,12H10.2Zm2.22-2.77h-2l-.38-2.48a.34.34,0,0,0-.33-.29H5a.34.34,0,0,0-.33.29l-.38,2.48h-2L.83,10.42h13.8Z"/></g></g></g></g></svg>