<svg xmlns="http://www.w3.org/2000/svg" viewBox="0 0 26.68 26.68"><defs><style>.cls-1{fill:#fff;fill-rule:evenodd;}</style></defs><g id="Layer_2" data-name="Layer 2"><g id="VL"><g id="Head"><g id="Icones_copy_4" data-name="Icones copy 4"><path class="cls-1" d="M14.8,26.68H11.88l-.06,0a1.66,1.66,0,0,1-1.31-1.48c-.07-.5-.17-1-.25-1.51a.33.33,0,0,0-.23-.3c-.47-.17-.93-.38-1.4-.56a.44.44,0,0,0-.32,0L7,23.76a1.64,1.64,0,0,1-2.26-.18L3.18,22.05A1.64,1.64,0,0,1,3,19.77c.29-.42.59-.84.89-1.25a.3.3,0,0,0,0-.39c-.21-.46-.41-.92-.58-1.39A.39.39,0,0,0,3,16.47c-.53-.08-1.07-.15-1.59-.27a2.79,2.79,0,0,1-.78-.32,1.75,1.75,0,0,1-.66-1V11.93a.54.54,0,0,0,.05-.11,1.67,1.67,0,0,1,1.4-1.24c.52-.09,1.06-.17,1.58-.27a.42.42,0,0,0,.25-.2c.22-.49.42-1,.61-1.49a.39.39,0,0,0,0-.3c-.31-.46-.64-.9-1-1.36a1.64,1.64,0,0,1,.19-2.24c.51-.52,1-1,1.54-1.55A1.68,1.68,0,0,1,6.92,3c.41.3.83.59,1.24.9a.35.35,0,0,0,.4.05q.69-.33,1.41-.6a.34.34,0,0,0,.24-.29,14.3,14.3,0,0,1,.28-1.59,2.94,2.94,0,0,1,.42-.92A1.65,1.65,0,0,1,11.83,0h2.92l.11.05A1.66,1.66,0,0,1,16.1,1.42c.1.53.18,1.06.26,1.59a.34.34,0,0,0,.24.29c.51.2,1,.42,1.52.61a.4.4,0,0,0,.32,0c.44-.3.86-.61,1.29-.92A1.66,1.66,0,0,1,22,3.16l1.49,1.49A1.67,1.67,0,0,1,23.71,7c-.3.42-.61.84-.9,1.27a.36.36,0,0,0,0,.32c.18.49.4,1,.59,1.47a.32.32,0,0,0,.28.22c.53.09,1.07.15,1.59.28a2.69,2.69,0,0,1,.88.4,1.55,1.55,0,0,1,.56.94V14.8a.54.54,0,0,0-.05.11,1.65,1.65,0,0,1-1.39,1.24c-.53.1-1.06.19-1.59.26a.33.33,0,0,0-.3.24c-.18.48-.37,1-.58,1.42a.33.33,0,0,0,0,.39c.31.42.61.85.91,1.27A1.66,1.66,0,0,1,23.55,22c-.51.52-1,1-1.55,1.54a1.63,1.63,0,0,1-2.26.18c-.44-.31-.87-.63-1.32-.93a.39.39,0,0,0-.3,0c-.5.19-1,.39-1.48.61a.45.45,0,0,0-.21.28c-.11.52-.19,1.06-.28,1.59a1.63,1.63,0,0,1-1,1.31ZM5.86,4.11l-.2.17c-.48.48-1,1-1.44,1.43-.17.16-.17.28,0,.47.4.55.79,1.12,1.2,1.67a1,1,0,0,1,.07,1.06A19.56,19.56,0,0,0,4.61,11a1,1,0,0,1-.87.75c-.66.09-1.31.22-2,.32-.21,0-.28.13-.28.34,0,.67,0,1.34,0,2,0,.24.09.32.31.35.69.11,1.37.24,2.05.34a.86.86,0,0,1,.76.68,8.52,8.52,0,0,0,.9,2.13.87.87,0,0,1-.07,1c-.4.55-.79,1.12-1.2,1.67a.29.29,0,0,0,0,.43c.49.48,1,1,1.46,1.45.14.16.26.15.42,0l1.67-1.19a1,1,0,0,1,1.11-.08,18.1,18.1,0,0,0,2,.82,1,1,0,0,1,.74.86c.1.66.22,1.32.32,2a.28.28,0,0,0,.32.28c.68,0,1.36,0,2,0,.24,0,.32-.1.35-.31.11-.69.24-1.37.35-2.06a.9.9,0,0,1,.66-.74c.72-.26,1.44-.55,2.13-.88a1,1,0,0,1,1.07.08c.55.41,1.12.79,1.67,1.2a.27.27,0,0,0,.42,0L22.43,21a.28.28,0,0,0,0-.44c-.4-.55-.78-1.11-1.18-1.65a1,1,0,0,1-.07-1.11,21.32,21.32,0,0,0,.84-2,1,1,0,0,1,.88-.75l2-.32a.27.27,0,0,0,.27-.33q0-1,0-2c0-.24-.08-.33-.31-.37-.68-.1-1.36-.23-2-.33a.91.91,0,0,1-.76-.68c-.27-.72-.55-1.42-.88-2.11a1,1,0,0,1,.08-1.09c.41-.54.78-1.1,1.18-1.65a.28.28,0,0,0,0-.44c-.48-.47-1-.94-1.42-1.42a.29.29,0,0,0-.46,0L18.87,5.44a.81.81,0,0,1-.95.07,9.59,9.59,0,0,0-2.3-.94A.8.8,0,0,1,15,3.88c-.11-.7-.24-1.39-.35-2.08,0-.24-.13-.31-.35-.3-.66,0-1.31,0-2,0-.27,0-.36.08-.4.34-.1.66-.22,1.32-.32,2a1,1,0,0,1-.7.81c-.72.26-1.42.56-2.11.88a.93.93,0,0,1-1.06-.07L6.09,4.26Z"/><path class="cls-1" d="M19.1,13.34a5.76,5.76,0,1,1-5.74-5.76A5.77,5.77,0,0,1,19.1,13.34Zm-5.76,4.25a4.26,4.26,0,1,0-4.25-4.24A4.28,4.28,0,0,0,13.34,17.59Z"/></g></g></g></g></svg>