<svg xmlns="http://www.w3.org/2000/svg" viewBox="0 0 17.39 17.39"><defs><style>.cls-1{fill:#fff;}</style></defs><g id="Layer_2" data-name="Layer 2"><g id="VL"><g id="Music-Source"><g id="Icones_copy_4" data-name="Icones copy 4"><path class="cls-1" d="M15.21,14.45a8.69,8.69,0,0,0,0-11.51.27.27,0,0,0-.07-.08A8.68,8.68,0,0,0,8.77,0H8.63A8.7,8.7,0,0,0,2.25,2.86l-.07.08a8.69,8.69,0,0,0,0,11.51l.07.08a8.68,8.68,0,0,0,6.37,2.86h.16a8.64,8.64,0,0,0,6.36-2.86A.27.27,0,0,0,15.21,14.45Zm-.44-.61h0l-.16-.08h0l-.17-.07h0l-.18-.07h0l-.19-.07-.18-.07h0l-.19-.07h0l-.19-.07-.19-.06h0l-.39-.11h0l-.27-.07v0h0l.1-.37h0l.09-.38h0l.08-.38h0v-.05a.31.31,0,1,0-.61-.12l-.09.43-.09.37-.1.36,0,.08-.36-.07h0l-.42-.07h0l-.42-.06h0l-.42-.05h0l-.41,0h0l-.41,0h0l-.4,0H9v-.85a.31.31,0,0,0-.31-.31.32.32,0,0,0-.32.31v.85H8.29l-.41,0h0l-.41,0h0l-.42,0H7l-.41.05h0l-.42.06h0l-.42.07h0l-.35.07,0-.08-.1-.36-.09-.37-.08-.38v-.05a.31.31,0,0,0-.36-.25.32.32,0,0,0-.26.36v.06h0l.09.38h0l.09.38h0l.1.37h0v0l-.27.07h0l-.39.11h0l-.2.06-.19.07h0l-.18.07h0l-.19.07h0l-.18.07h0L3,13.67H3l-.17.07h0l-.16.08h0l-.1.05A8,8,0,0,1,.63,9H2.89a.32.32,0,0,0,0-.63H.63A8,8,0,0,1,2.52,3.5l.1,0h0l.16.08h0L3,3.72H3l.18.08.18.07h0L3.71,4h0l.19.06h0l.19.06h0l.39.12h0l.27.07v0h0l-.1.37h0l-.09.38h0l-.09.39a.32.32,0,0,0,.62.13l.08-.39.09-.37.1-.36,0-.08.35.08h0l.42.07h0l.42.06h0l.41,0H7l.42,0h0l.41,0h.51v.86A.32.32,0,0,0,8.7,6,.31.31,0,0,0,9,5.67V4.81h.51l.41,0h0l.42,0h0l.42,0h0l.42-.06h0l.42-.07h0L12,4.48l0,.08.1.36.09.37.08.38v0a.32.32,0,0,0,.31.26h.06a.3.3,0,0,0,.24-.36V5.55h0l-.08-.39h0l-.09-.38h0l-.1-.37h0v0l.27-.07h0l.39-.12h0l.19-.06h0L13.67,4h0L13.87,4h0l.18-.07h0l.18-.07h0l.18-.08h0l.17-.08h0l.16-.08h0l.1,0a8,8,0,0,1,1.89,4.88H14.51a.32.32,0,1,0,0,.63h2.25a8,8,0,0,1-1.89,4.88Zm-6.39,2.9h0l-.13,0-.17-.05-.12,0-.18-.09-.12-.07-.13-.08-.14-.1-.13-.1L7.08,16l-.17-.18-.09-.1-.08-.11-.09-.1-.08-.12-.09-.12-.08-.12-.16-.26-.08-.14-.07-.14L6,14.48l-.07-.14-.07-.16L5.8,14l-.07-.16-.06-.16-.06-.17v0l.27-.06.41-.07.41-.05.41-.05.41,0,.4,0h.47Zm2.19-1-.08.1-.09.09-.09.09-.09.08-.09.08-.08.07-.05,0-.08.07-.14.09-.08,0-.13.07-.14.06-.12,0-.12,0-.13,0H9V13.21h.48l.4,0,.41,0,.41.05.4.05.41.07.28.06v0l-.06.17-.07.16L11.6,14l-.07.16-.07.16-.15.29-.16.28-.08.13-.08.13-.08.12-.08.12-.09.12-.08.1ZM9,.65l.09,0,.12,0L9.4.76l.12.06.09,0,.13.07L9.87,1l.13.09.14.11.08.07.09.09.09.09.09.09.08.1.09.1.08.11.09.11.08.12.08.12.09.13.07.13.16.28.15.3.14.31.06.16.07.16.06.17v0l-.28,0L11.11,4l-.4.06-.41,0-.41,0-.4,0-.4,0H9Zm-2.19,1,.09-.1L7,1.46l.08-.08.09-.08.09-.08.13-.11L7.52,1,7.66.93,7.78.86,8,.78,8.08.73l.13,0,.13,0h0V4.19H8.31l-.4,0-.4,0-.41,0-.41,0L6.28,4l-.41-.07-.27,0v0l.06-.17.06-.16.07-.16.07-.16.07-.15L6,2.91l.08-.15.07-.14.08-.14.16-.26.08-.12L6.57,2l.08-.11.09-.11ZM14.43,3l-.1,0-.16.08L14,3.22l-.18.07-.17.07-.18.07-.19.06-.18.06-.38.12-.31.08,0-.1h0l-.07-.18h0l-.07-.17h0l-.07-.16h0L12.09,3,12,2.79h0l-.08-.16-.08-.15h0l-.16-.3h0L11.61,2h0l-.08-.13h0l-.09-.13h0l-.08-.12h0l-.09-.12h0l-.09-.12h0l-.09-.11h0L11,1.14h0l-.1-.1h0l-.09-.1h0L10.69.87A8.12,8.12,0,0,1,14.43,3ZM6.71.87,6.65.93h0L6.55,1h0l-.1.1h0l-.09.11h0l-.1.11h0l-.09.12h0l-.09.12h0L6,1.74H6l-.09.13h0l-.16.27h0l-.08.15h0l-.08.15h0l-.07.16h0l-.07.16h0L5.3,3h0l-.07.16h0l-.07.17h0l-.06.17h0L5,3.65H5l0,.1-.3-.08L4.3,3.55l-.19-.06-.18-.06-.36-.14L3.4,3.22l-.17-.07-.17-.08L3,3A8.2,8.2,0,0,1,6.71.87ZM3,14.37l.1,0,.17-.08.17-.07.17-.07L3.75,14,3.93,14l.18-.06.19-.06.38-.11.3-.08,0,.09H5l.06.17h0l.06.17h0l.07.17h0l.07.17h0l.07.16h0l.07.15h0l.07.15h0l.08.15h0l.08.14h0l.16.28h0l.09.12H6l.09.12h0l.09.12h0l.09.11h0l.1.11h0l.09.1h0l.19.2h0l.06.05A8.12,8.12,0,0,1,3,14.37Zm7.72,2.15.06-.05h0l.09-.09h0l.09-.1h0l.09-.1h0l.09-.11h0l.09-.11h0l.09-.12h0l.08-.12h0l.08-.12h0l.09-.14h0l.08-.14h0l.16-.29h0l.16-.31h0l.08-.16.07-.17h0l.07-.17.07-.17h0l.07-.17h0l0-.09.31.08.38.11.37.12.18.07.17.07.18.07.17.07.16.08.1,0A8,8,0,0,1,10.68,16.52Z"/><path class="cls-1" d="M6.53,7.29a.26.26,0,0,0-.33.17L5.7,9l-.49-1.5A.27.27,0,0,0,5,7.28a.27.27,0,0,0-.26.18L4.21,9l-.49-1.5a.28.28,0,0,0-.34-.17.27.27,0,0,0-.17.34L4,9.9a.27.27,0,0,0,.26.18.26.26,0,0,0,.25-.18L5,8.4l.49,1.5a.26.26,0,0,0,.25.18A.27.27,0,0,0,6,9.9L6.7,7.63A.27.27,0,0,0,6.53,7.29Z"/><path class="cls-1" d="M10.28,7.29a.28.28,0,0,0-.34.17L9.45,9,9,7.46a.27.27,0,0,0-.26-.18.27.27,0,0,0-.25.18L8,9l-.5-1.5a.27.27,0,0,0-.34-.17A.28.28,0,0,0,7,7.63L7.7,9.9a.27.27,0,0,0,.26.18.27.27,0,0,0,.25-.18L8.7,8.4l.5,1.5a.26.26,0,0,0,.25.18.27.27,0,0,0,.26-.18l.74-2.27A.27.27,0,0,0,10.28,7.29Z"/><path class="cls-1" d="M14,7.29a.28.28,0,0,0-.34.17L13.2,9l-.49-1.5a.27.27,0,0,0-.26-.18.26.26,0,0,0-.25.18L11.7,9l-.49-1.5a.27.27,0,1,0-.51.17l.75,2.27a.27.27,0,0,0,.25.18A.27.27,0,0,0,12,9.9l.49-1.5.49,1.5a.27.27,0,0,0,.26.18.26.26,0,0,0,.25-.18l.75-2.27A.27.27,0,0,0,14,7.29Z"/></g></g></g></g></svg>