<svg xmlns="http://www.w3.org/2000/svg" viewBox="0 0 13.19 13.52"><defs><style>.cls-1{fill:#fff;}.cls-2,.cls-3{fill:none;stroke:#fff;stroke-miterlimit:10;}.cls-2{stroke-width:0.25px;fill-rule:evenodd;}.cls-3{stroke-width:0.5px;}</style></defs><g id="Layer_2" data-name="Layer 2"><g id="Layer_169" data-name="Layer 169"><g id="LINE"><path class="cls-1" d="M1.06,6.79a.2.2,0,0,1-.18-.1A.19.19,0,0,1,1,6.43l2.2-1.28a.2.2,0,0,1,.27.07.19.19,0,0,1-.07.27L1.15,6.77Z"/></g><g id="LINE-2" data-name="LINE"><path class="cls-1" d="M2.75,3.59H.2A.19.19,0,0,1,0,3.4a.2.2,0,0,1,.2-.2H2.75a.2.2,0,0,1,.19.2A.19.19,0,0,1,2.75,3.59Z"/></g><g id="LINE-3" data-name="LINE"><path class="cls-1" d="M3.26,1.67a.19.19,0,0,1-.1,0L1,.37A.2.2,0,0,1,.88.1.2.2,0,0,1,1.15,0L3.36,1.3a.2.2,0,0,1,.07.27A.19.19,0,0,1,3.26,1.67Z"/></g><g id="LINE-4" data-name="LINE"><path class="cls-1" d="M9.93,1.67a.2.2,0,0,1-.1-.37L12,0a.2.2,0,0,1,.27.07.21.21,0,0,1-.07.27L10,1.64A.19.19,0,0,1,9.93,1.67Z"/></g><g id="LINE-5" data-name="LINE"><path class="cls-1" d="M13,3.59H10.45a.19.19,0,0,1-.2-.19.2.2,0,0,1,.2-.2H13a.2.2,0,0,1,.2.2A.19.19,0,0,1,13,3.59Z"/></g><g id="LINE-6" data-name="LINE"><path class="cls-1" d="M12.14,6.79l-.1,0L9.83,5.49a.2.2,0,0,1-.07-.27A.21.21,0,0,1,10,5.15l2.21,1.28a.19.19,0,0,1,.07.26A.19.19,0,0,1,12.14,6.79Z"/></g><path class="cls-1" d="M6.58,13.52a4,4,0,1,1,2.87-1.2,4,4,0,0,1-2.87,1.2ZM6.62,6h0a3.56,3.56,0,0,0,0,7.12h0A3.55,3.55,0,0,0,9.13,12a3.51,3.51,0,0,0,1-2.5A3.57,3.57,0,0,0,6.62,6Z"/><path class="cls-2" d="M6.6,10.93A1.41,1.41,0,1,1,8,9.51,1.42,1.42,0,0,1,6.6,10.93Z"/><path class="cls-3" d="M4.9,6V2.93a.56.56,0,0,1,.57-.57H7.72a.57.57,0,0,1,.58.57V6"/><rect class="cls-1" x="5.92" y="3.13" width="1.36" height="1.38" rx="0.23"/></g></g></svg>