<svg xmlns="http://www.w3.org/2000/svg" viewBox="0 0 17.65 14.61"><defs><style>.cls-1,.cls-2{fill:#fff;}.cls-2{fill-rule:evenodd;}</style></defs><g id="Layer_2" data-name="Layer 2"><g id="Layer_169" data-name="Layer 169"><path class="cls-1" d="M12.07,14.61H5.58a.76.76,0,0,1-.76-.76V2.55a.76.76,0,0,1,.76-.76h6.49a.76.76,0,0,1,.76.76v11.3A.76.76,0,0,1,12.07,14.61ZM5.58,2.39a.16.16,0,0,0-.16.16v11.3a.16.16,0,0,0,.16.16h6.49a.16.16,0,0,0,.16-.16V2.55a.16.16,0,0,0-.16-.16Z"/><path class="cls-2" d="M9.58,4.54a.76.76,0,1,1-1.51,0,.76.76,0,0,1,1.51,0Z"/><path class="cls-1" d="M8.82,6.18a1.64,1.64,0,0,1,0-3.27h0a1.64,1.64,0,0,1,1.63,1.62A1.64,1.64,0,0,1,8.83,6.18Zm0-2.85h0a1.22,1.22,0,0,0,0,2.43h0a1.19,1.19,0,0,0,.86-.37A1.15,1.15,0,0,0,10,4.54,1.21,1.21,0,0,0,8.83,3.33Z"/><path class="cls-1" d="M8.81,13.75a3.08,3.08,0,0,1-3.06-3.08A3.07,3.07,0,0,1,8.8,7.59a3.07,3.07,0,0,1,3.1,3.06A3,3,0,0,1,11,12.82a3.11,3.11,0,0,1-2.19.93Zm0-5.64h0a2.56,2.56,0,0,0,0,5.11h0a2.56,2.56,0,0,0,0-5.11Z"/><path class="cls-2" d="M8.83,11.75a1.09,1.09,0,1,1,1.08-1.09A1.1,1.1,0,0,1,8.83,11.75Z"/><g id="LINE"><path class="cls-1" d="M1.41,9.09A.28.28,0,0,1,1.18,9a.26.26,0,0,1,.1-.36l3-1.71a.26.26,0,0,1,.26.46L1.54,9.05A.22.22,0,0,1,1.41,9.09Z"/></g><g id="LINE-2" data-name="LINE"><path class="cls-1" d="M3.67,4.81H.26a.27.27,0,0,1,0-.53H3.67a.27.27,0,1,1,0,.53Z"/></g><g id="LINE-3" data-name="LINE"><path class="cls-1" d="M4.36,2.23a.22.22,0,0,1-.13,0L1.28.49a.26.26,0,0,1-.1-.36A.27.27,0,0,1,1.54,0l3,1.71a.26.26,0,0,1,.1.36A.26.26,0,0,1,4.36,2.23Z"/></g><g id="LINE-4" data-name="LINE"><path class="cls-1" d="M13.29,2.23a.26.26,0,0,1-.23-.13.26.26,0,0,1,.1-.36L16.11,0a.28.28,0,0,1,.36.1.26.26,0,0,1-.1.36l-3,1.7A.22.22,0,0,1,13.29,2.23Z"/></g><g id="LINE-5" data-name="LINE"><path class="cls-1" d="M17.39,4.81H14a.27.27,0,1,1,0-.53h3.41a.27.27,0,0,1,0,.53Z"/></g><g id="LINE-6" data-name="LINE"><path class="cls-1" d="M16.24,9.09a.2.2,0,0,1-.13,0l-2.95-1.7a.26.26,0,0,1,.26-.46l3,1.71a.26.26,0,0,1,.1.36A.28.28,0,0,1,16.24,9.09Z"/></g></g></g></svg>