<svg xmlns="http://www.w3.org/2000/svg" viewBox="0 0 28.7 23.47"><defs><style>.cls-1{fill:#fff;fill-rule:evenodd;}</style></defs><g id="Layer_2" data-name="Layer 2"><g id="Layer_162" data-name="Layer 162"><path class="cls-1" d="M0,7a.81.81,0,0,1,.86-.52c1.38,0,2.75,0,4.12,0a.62.62,0,0,0,.41-.16l6.38-6a1.83,1.83,0,0,1,.31-.24A.63.63,0,0,1,13,.48a1.67,1.67,0,0,1,0,.39V22.61A1.44,1.44,0,0,1,13,23a.62.62,0,0,1-.9.37,1.17,1.17,0,0,1-.29-.22l-6.35-6A.74.74,0,0,0,4.9,17c-1.36,0-2.71,0-4.07,0A.79.79,0,0,1,0,16.44Z"/><path class="cls-1" d="M28.7,12.63c-.05.46-.1.93-.16,1.38a16.26,16.26,0,0,1-4.12,8.73.64.64,0,0,1-.93.07,11.91,11.91,0,0,1-1-1c-.24-.26-.2-.56.06-.89.4-.5.82-1,1.18-1.53a13.25,13.25,0,0,0,2.36-7.69,13.27,13.27,0,0,0-2-7.09,23.6,23.6,0,0,0-1.42-1.91c-.42-.54-.43-.78.06-1.27.22-.22.44-.45.67-.67A.67.67,0,0,1,24.47.8,16,16,0,0,1,28.6,10c0,.29.07.58.1.88Z"/><path class="cls-1" d="M23.48,11.4A11.3,11.3,0,0,1,20.74,19a.62.62,0,0,1-.92.11,14.15,14.15,0,0,1-1-1,.63.63,0,0,1,0-.83c.22-.31.47-.61.68-.92a8.45,8.45,0,0,0-.41-9.82c-.61-.78-.6-.88.08-1.57l.54-.54a.67.67,0,0,1,1.08.07,10.82,10.82,0,0,1,2.49,5.13C23.4,10.32,23.44,11,23.48,11.4Z"/><path class="cls-1" d="M18.27,11.73a6,6,0,0,1-1.15,3.48A.68.68,0,0,1,16,15.3l-.73-.73a.68.68,0,0,1-.12-1,3.18,3.18,0,0,0,.41-2.68,4.67,4.67,0,0,0-.42-.91.7.7,0,0,1,.13-1L16,8.13a.66.66,0,0,1,1.08.09A5.87,5.87,0,0,1,18.27,11.73Z"/></g></g></svg>