<?xml version="1.0" encoding="utf-8"?>
<svg viewBox="0 0 500 500" xmlns="http://www.w3.org/2000/svg">
  <g id="Layer_2" data-name="Layer 2" transform="matrix(1, 0, 0, 1, 180.670563, 163.170135)">
    <g id="Layer_162" data-name="Layer 162" style="" transform="matrix(18.306543, 0, 0, 18.306543, -97.987938, -130.364517)">
      <path class="cls-1" d="M0,7a.81.81,0,0,1,.86-.52c1.38,0,2.75,0,4.12,0a.62.62,0,0,0,.41-.16l6.38-6a1.83,1.83,0,0,1,.31-.24A.63.63,0,0,1,13,.48a1.67,1.67,0,0,1,0,.39V22.61A1.44,1.44,0,0,1,13,23a.62.62,0,0,1-.9.37,1.17,1.17,0,0,1-.29-.22l-6.35-6A.74.74,0,0,0,4.9,17c-1.36,0-2.71,0-4.07,0A.79.79,0,0,1,0,16.44Z" style="fill-rule: evenodd;"/>
      <path class="cls-1" d="M18.27,11.73a6,6,0,0,1-1.15,3.48A.68.68,0,0,1,16,15.3l-.73-.73a.68.68,0,0,1-.12-1,3.18,3.18,0,0,0,.41-2.68,4.67,4.67,0,0,0-.42-.91.7.7,0,0,1,.13-1L16,8.13a.66.66,0,0,1,1.08.09A5.87,5.87,0,0,1,18.27,11.73Z" style="fill-rule: evenodd;"/>
    </g>
  </g>
</svg>